<svg xmlns="http://www.w3.org/2000/svg" viewBox="0 0 273.21 90"><defs><style>.cls-1{fill:#28bbf4;}</style></defs><g id="Layer_2" data-name="Layer 2"><g id="Layer_1-2" data-name="Layer 1"><path d="M112.65,36.58a2.19,2.19,0,0,1,1.19-1.84,4.58,4.58,0,0,1,2.48-.75,1.85,1.85,0,0,1,2,1.15L127,59.33l6.76-21.82a2,2,0,0,1,2.14-1.43,2.17,2.17,0,0,1,2.31,1.43l6.62,22,8.79-24.41A1.71,1.71,0,0,1,155.47,34a4.78,4.78,0,0,1,2.52.75,2.19,2.19,0,0,1,1.22,1.84,2.58,2.58,0,0,1-.29,1.15L147.69,67.61a2.25,2.25,0,0,1-2.37,1.3c-1.3,0-2.12-.44-2.45-1.3l-7-21.2L129,67.35a2.26,2.26,0,0,1-2.46,1.56,2.35,2.35,0,0,1-2.45-1.52L112.94,37.73A4.34,4.34,0,0,1,112.65,36.58Z"/><path d="M163.19,54.87V47.31a12.85,12.85,0,0,1,4.21-9.58,14.1,14.1,0,0,1,10.12-4,13.89,13.89,0,0,1,9.72,3.76,12.2,12.2,0,0,1,4.1,9.41,9.33,9.33,0,0,1-.5,3.39,3.38,3.38,0,0,1-1.55,1.83,6.59,6.59,0,0,1-1.94.69,17,17,0,0,1-2.41.14H169.17v2.16A7.86,7.86,0,0,0,172,61.42a12.59,12.59,0,0,0,11.52,1.66,18.87,18.87,0,0,0,2.85-1.41,3.5,3.5,0,0,1,1.73-.68,2.14,2.14,0,0,1,1.72.9,2.91,2.91,0,0,1,.72,1.83c0,1.11-1.09,2.23-3.27,3.39a17.27,17.27,0,0,1-8.1,1.73q-7.06,0-11.52-3.86A12.69,12.69,0,0,1,163.19,54.87Zm6-6h13.32a4.68,4.68,0,0,0,2.52-.47,2.15,2.15,0,0,0,.65-1.84,7.92,7.92,0,0,0-2.38-5.68,7.78,7.78,0,0,0-5.83-2.45,8.24,8.24,0,0,0-5.83,2.27,7.28,7.28,0,0,0-2.45,5.58Z"/><path d="M198.62,66.1V15.63a1.77,1.77,0,0,1,.82-1.52,3.69,3.69,0,0,1,2.13-.57,3.86,3.86,0,0,1,2.16.57,1.77,1.77,0,0,1,.86,1.52V66.1a1.91,1.91,0,0,1-.9,1.48,3.44,3.44,0,0,1-2.12.68,3.4,3.4,0,0,1-2.09-.65A1.86,1.86,0,0,1,198.62,66.1Z"/><path d="M214.38,66.1V15.63a1.78,1.78,0,0,1,.83-1.52,3.67,3.67,0,0,1,2.13-.57,3.86,3.86,0,0,1,2.16.57,1.77,1.77,0,0,1,.86,1.52V66.1a1.91,1.91,0,0,1-.9,1.48,3.44,3.44,0,0,1-2.12.68,3.38,3.38,0,0,1-2.09-.65A1.87,1.87,0,0,1,214.38,66.1Z"/><path d="M229.5,66.1V36.22a1.73,1.73,0,0,1,.87-1.51,3.62,3.62,0,0,1,2.09-.58,3.78,3.78,0,0,1,2.16.58,1.74,1.74,0,0,1,.86,1.51V66.1a1.91,1.91,0,0,1-.9,1.48,3.44,3.44,0,0,1-2.12.68,3.38,3.38,0,0,1-2.09-.65A1.87,1.87,0,0,1,229.5,66.1Z"/><path d="M244.05,66.16V27.71a13.76,13.76,0,0,1,4.28-10.12q4.29-4.26,11.48-4.27a21,21,0,0,1,7.85,1.41c2.35.93,3.53,2,3.53,3.27a4.74,4.74,0,0,1-.65,2.16c-.43.82-1,1.23-1.58,1.23a3.39,3.39,0,0,1-1.55-.67,14.09,14.09,0,0,0-3-1.3,14.73,14.73,0,0,0-4.46-.63c-3.31,0-5.8.88-7.45,2.63A8.75,8.75,0,0,0,250,27.65v6.48h8.64a1.59,1.59,0,0,1,1.37.72,2.78,2.78,0,0,1,.5,1.66,2.64,2.64,0,0,1-.5,1.62,1.63,1.63,0,0,1-1.37.68H250V66.17a1.77,1.77,0,0,1-.9,1.48,3.86,3.86,0,0,1-2.19.61,3.5,3.5,0,0,1-2.06-.58A1.76,1.76,0,0,1,244.05,66.16Zm23.18-.06V36.22a1.76,1.76,0,0,1,.83-1.51,3.45,3.45,0,0,1,2.05-.58,4,4,0,0,1,2.2.58,1.72,1.72,0,0,1,.9,1.51V66.1a1.85,1.85,0,0,1-.9,1.51,3.69,3.69,0,0,1-2.2.65,3.22,3.22,0,0,1-2.05-.65A1.9,1.9,0,0,1,267.23,66.1Z"/><circle class="cls-1" cx="54" cy="36" r="8"/><path class="cls-1" d="M90,48.84V6a6,6,0,0,0-6-6H6A6,6,0,0,0,0,6V39.51c5,10.17,22.16,18.3,43.18,19.56l3.41.2L40.68,90H66.61L57.27,60.11ZM40,36A14,14,0,1,1,54,50,14,14,0,0,1,40,36Z"/><path class="cls-1" d="M0,49.32V84a6,6,0,0,0,6,6H34.57l4.85-25.2C22.38,63.18,8.16,57.34,0,49.32Z"/><path class="cls-1" d="M64.73,63.89,72.89,90H84a6,6,0,0,0,6-6V55.19Z"/></g></g></svg>